<svg version="1.1" id="Layer_1" xmlns="http://www.w3.org/2000/svg" xmlns:xlink="http://www.w3.org/1999/xlink" x="0px" y="0px"
	 width="100%" viewBox="0 0 2553 1064" enable-background="new 0 0 2553 1064" xml:space="preserve">
<path fill="#FFFFFF" opacity="1.000000" stroke="none" 
	d="
M1.277714,754.270386 
	C1.000000,614.979126 1.000000,475.958221 1.000000,336.468658 
	C3.260156,335.161377 4.805248,336.738190 6.462204,337.716858 
	C21.236248,346.443085 35.913834,355.330994 50.634411,364.146912 
	C52.313042,365.152222 53.906044,366.365143 55.759960,366.860443 
	C57.143219,365.620911 56.659084,364.200684 56.661285,362.949921 
	C56.693508,344.624695 56.573486,326.298218 56.763256,307.974915 
	C56.810463,303.416687 55.219700,300.635345 51.290859,298.315643 
	C34.655205,288.493530 18.061348,278.596893 1.293251,268.252167 
	C1.000000,180.339081 1.024660,92.678123 0.906746,5.017354 
	C0.902192,1.631563 1.523591,0.903941 4.982259,0.904342 
	C853.259949,1.002762 1701.537720,1.003438 2549.815430,0.891165 
	C2553.600586,0.890664 2554.082275,1.886348 2554.081543,5.315000 
	C2553.994141,357.125275 2553.993164,708.935547 2554.094971,1060.745850 
	C2554.095947,1064.339722 2553.372559,1065.096924 2549.754639,1065.096558 
	C1701.643555,1064.997070 853.532471,1064.996582 5.421411,1065.104248 
	C1.494671,1065.104736 0.908632,1064.026611 0.913799,1060.421875 
	C1.026805,981.593811 1.000000,902.765564 1.000000,823.468628 
	C3.670472,821.529175 5.429947,823.692871 7.278729,824.793091 
	C21.441561,833.221802 35.581001,841.690491 49.702225,850.189270 
	C50.843433,850.876099 52.013531,851.516235 53.138771,852.227051 
	C55.811100,853.915527 56.677608,852.807312 56.678291,850.066223 
	C56.679996,843.240417 56.678692,836.414551 56.681202,829.588684 
	C56.685429,818.101196 56.483253,806.608704 56.775673,795.128662 
	C56.900993,790.208740 55.297974,787.199890 50.957615,784.691284 
	C35.969437,776.028442 21.216297,766.959534 6.369546,758.052063 
	C4.662804,757.028137 2.849877,756.135925 1.277714,754.270386 
z"/>
<path fill="#020202" opacity="1.000000" stroke="none" 
	d="
M1.000000,754.468628 
	C11.240488,758.818359 20.453487,765.408569 30.250097,770.995728 
	C38.071072,775.456238 45.612347,780.408020 53.443680,784.849243 
	C56.570187,786.622253 58.112144,788.408386 58.058998,792.355896 
	C57.796696,811.838379 57.939644,831.326294 57.939632,850.812317 
	C57.939632,852.429016 57.939636,854.045654 57.939636,856.527161 
	C38.776020,845.078491 20.253033,834.012512 1.365023,822.973267 
	C1.000000,800.312439 1.000000,777.624878 1.000000,754.468628 
z"/>
<path fill="#020202" opacity="1.000000" stroke="none" 
	d="
M1.000000,268.468658 
	C2.385784,267.305969 3.307389,268.300201 4.337582,268.912842 
	C21.369604,279.041870 38.408882,289.158752 55.425037,299.314362 
	C57.027744,300.270905 58.000679,301.541779 57.991627,303.726868 
	C57.901340,325.519989 57.936836,347.313599 57.936836,370.007263 
	C38.796005,358.476257 20.245384,347.300812 1.347381,336.062683 
	C1.000000,313.645782 1.000000,291.291534 1.000000,268.468658 
z"/>
<path fill="#010101" opacity="1.000000" stroke="none" 
	d="
M108.462135,697.417725 
	C121.822563,686.362915 134.902618,675.532593 147.957611,664.672241 
	C152.783997,660.657166 157.307831,656.220520 162.441269,652.655212 
	C165.314270,650.659851 164.509949,649.588928 163.107651,647.441162 
	C152.157913,630.670654 143.751572,612.721191 137.900528,593.531006 
	C132.668762,576.371948 130.428726,558.861206 129.934402,540.970947 
	C129.279266,517.259766 132.591354,494.239288 140.056747,471.744904 
	C145.459656,455.465027 153.755142,440.638641 162.738388,426.181641 
	C164.743423,422.954926 164.159882,421.152374 161.639755,419.069122 
	C142.690094,403.404480 123.756516,387.720398 104.819542,372.040497 
	C104.563171,371.828217 104.333717,371.583801 104.081512,371.366180 
	C96.169968,364.539459 96.169769,364.539703 87.018295,369.427307 
	C87.018295,353.789673 87.018295,338.363647 87.018295,322.937622 
	C87.018295,319.604309 87.456100,316.200592 86.933533,312.951324 
	C85.546219,304.325104 88.499847,299.038757 96.542885,294.780792 
	C111.412384,286.908936 125.585960,277.723877 140.072006,269.123871 
	C141.164444,268.475311 142.240280,267.547363 143.930283,267.929993 
	C143.930283,289.678528 143.912201,311.483398 143.962189,333.288147 
	C143.966522,335.173889 143.352554,336.151245 141.637039,337.104706 
	C136.053452,340.207977 130.724686,343.773315 125.114990,346.824615 
	C122.244209,348.386108 122.360924,349.465729 124.646545,351.380127 
	C136.419861,361.241302 148.115234,371.195496 159.879044,381.068115 
	C166.573364,386.686310 173.487701,392.052032 180.010330,397.860077 
	C182.403107,399.990753 183.620438,400.234131 185.877701,397.781067 
	C197.805359,384.818512 211.597427,374.098724 226.652252,365.032349 
	C246.948013,352.809784 268.743744,344.476227 292.048859,339.988647 
	C306.532135,337.199829 321.114197,335.629791 335.822357,336.211578 
	C361.545166,337.229065 386.313782,342.654846 409.986938,353.015442 
	C434.265045,363.640778 455.595459,378.419067 473.884216,397.556152 
	C476.227325,400.007904 477.442535,400.019196 480.112518,397.747009 
	C497.696259,382.783051 515.497925,368.074921 533.248291,353.307129 
	C538.197327,349.189667 538.201965,349.090973 532.840332,345.865753 
	C528.084839,343.005188 523.482117,339.866760 518.591736,337.264893 
	C516.395508,336.096466 516.025574,334.725067 516.030701,332.575958 
	C516.082275,311.078522 516.062073,289.580933 516.062073,267.617950 
	C521.675598,269.212891 525.923645,272.868866 530.605286,275.550781 
	C544.066833,283.262512 557.295166,291.381287 570.626404,299.321075 
	C572.093628,300.194916 573.046326,301.071716 573.037659,303.104187 
	C572.943604,325.265625 572.978760,347.427612 572.978760,369.548431 
	C572.500549,369.679932 572.024719,369.939453 571.904846,369.825256 
	C566.003723,364.203339 561.203674,366.883240 556.021179,371.338562 
	C541.628479,383.711914 526.994751,395.805542 512.416016,407.961426 
	C507.479736,412.077362 502.441986,416.072693 497.412323,420.075012 
	C495.362213,421.706360 494.682190,422.861267 496.589447,425.592896 
	C513.171936,449.342896 522.825012,475.993927 527.642517,504.320709 
	C530.562622,521.490784 530.654480,538.879883 529.136658,556.344604 
	C526.931641,581.716675 519.838928,605.474670 507.866730,627.842346 
	C504.630005,633.889465 501.182007,639.834778 497.572052,645.666565 
	C495.534149,648.958618 495.304291,650.837891 498.862762,653.753174 
	C520.178955,671.216431 541.187683,689.055664 562.227173,706.854431 
	C563.755493,708.147339 564.464783,707.799866 565.941406,706.846741 
	C571.840515,703.038940 577.926819,699.522766 583.881165,695.798401 
	C586.112854,694.402466 587.656189,693.933594 590.416321,695.659363 
	C606.630920,705.798035 623.094421,715.539734 639.507263,725.359619 
	C642.649109,727.239380 643.880981,728.411316 639.651978,730.889404 
	C622.718933,740.811829 605.954468,751.023682 589.199463,761.246094 
	C586.587402,762.839722 584.806702,761.435974 582.892517,760.288757 
	C569.425598,752.217224 555.987122,744.098267 542.545532,735.984375 
	C538.497314,733.540710 534.468201,731.065125 530.389160,728.579102 
	C530.654785,728.177246 530.828308,727.682068 531.177246,727.421448 
	C537.299194,722.847595 537.312378,722.843628 531.390320,717.865967 
	C514.713013,703.848267 497.984741,689.890686 481.381592,675.785767 
	C477.958191,672.877563 475.737732,672.341125 472.112000,676.097595 
	C444.451233,704.755310 410.715240,722.859436 372.067017,731.647278 
	C353.620758,735.841614 334.714020,737.229309 315.822540,735.783997 
	C278.084320,732.896729 243.592728,720.498352 212.684097,698.617004 
	C202.964233,691.735901 193.721863,684.136047 185.786682,675.149231 
	C183.602448,672.675598 182.006927,672.304321 179.268112,674.669006 
	C170.661301,682.099976 161.713669,689.134521 153.023361,696.471069 
	C143.174774,704.785522 133.465729,713.265137 123.680244,721.654541 
	C123.048012,722.196594 122.280571,722.580872 121.644211,722.994263 
	C123.744385,725.864380 127.280701,725.754089 128.625153,728.590759 
	C111.313347,739.039307 93.921356,749.433777 76.662407,760.044678 
	C73.448425,762.020630 71.144066,762.107727 67.809319,760.044250 
	C51.269741,749.809998 34.518402,739.918152 17.852102,729.888306 
	C17.177410,729.482300 16.607990,728.901428 15.469334,727.981934 
	C25.736681,721.827271 35.644272,715.914917 45.524479,709.957214 
	C53.360458,705.232117 61.162308,700.450378 68.980743,695.696167 
	C70.971451,694.485596 72.502457,693.676331 75.110382,695.463013 
	C81.170998,699.615051 87.820740,702.897583 94.011330,706.875427 
	C95.883530,708.078491 96.692078,707.850708 98.115051,706.514954 
	C101.374924,703.454956 104.808670,700.580200 108.462135,697.417725 
z"/>
<path fill="#010101" opacity="1.000000" stroke="none" 
	d="
M698.751099,665.891602 
	C685.773010,665.910583 673.272400,665.824524 660.776306,666.021545 
	C657.659851,666.070679 656.927368,665.161072 656.930359,662.111633 
	C657.015137,576.284546 657.010010,490.457397 656.945068,404.630280 
	C656.943054,401.942261 657.451782,400.945190 660.422058,400.954529 
	C700.585266,401.081146 740.764709,400.394897 780.907166,401.326813 
	C809.187073,401.983337 836.404114,421.627472 847.113281,448.981079 
	C851.569092,460.362091 853.741028,471.962891 852.921265,484.041138 
	C852.034973,497.098145 848.052307,509.331512 840.909546,520.315979 
	C838.789612,523.576050 839.180847,525.307800 841.972168,527.543152 
	C859.920898,541.916382 869.685730,560.367493 871.131226,583.580139 
	C872.573120,606.735229 865.100464,626.462830 849.288269,642.740234 
	C837.404114,654.974060 822.567627,662.602783 805.349365,664.964233 
	C791.264954,666.895874 777.122803,665.581482 763.010498,665.840393 
	C749.849243,666.081848 736.679749,665.846558 723.514465,665.926270 
	C720.508606,665.944458 719.383789,665.739441 720.860840,662.149048 
	C726.284241,648.966064 731.336609,635.628967 736.405823,622.303162 
	C737.396912,619.697815 739.340942,620.174683 741.234802,620.172485 
	C759.400085,620.151062 777.568848,619.921448 795.729614,620.204590 
	C811.543762,620.451111 825.547363,605.619141 826.240601,589.846802 
	C826.993530,572.714417 814.037720,558.374939 800.312317,556.453064 
	C798.856445,556.249146 797.392639,555.991943 795.937561,555.990112 
	C765.939758,555.952332 735.941650,556.012329 705.944580,555.865540 
	C702.602051,555.849182 701.889160,556.820923 701.899902,560.002502 
	C702.014038,593.666382 701.994263,627.330750 701.906799,660.994751 
	C701.901917,662.861145 703.510986,666.143494 698.751099,665.891602 
z"/>
<path fill="#010101" opacity="1.000000" stroke="none" 
	d="
M2209.067871,618.053711 
	C2223.467529,626.006104 2238.250000,627.133301 2253.607910,623.013062 
	C2255.222412,622.579956 2256.846436,621.206299 2257.903320,623.950562 
	C2262.556641,636.031433 2267.174561,648.129639 2272.115479,660.093445 
	C2273.473633,663.381470 2272.744141,664.134338 2269.564941,665.158203 
	C2260.909912,667.945740 2252.169678,669.531189 2243.063965,670.113281 
	C2224.098877,671.325562 2206.251953,667.708679 2189.608643,658.743896 
	C2163.005127,644.414001 2145.652832,622.343750 2139.251953,592.955017 
	C2132.615479,562.485901 2137.741455,533.414429 2156.256348,507.846252 
	C2171.067627,487.392792 2191.481689,475.465576 2216.746582,471.967712 
	C2243.107910,468.318085 2266.802002,474.816620 2288.449463,489.831848 
	C2289.073486,490.264618 2289.875732,490.440460 2290.998779,490.902313 
	C2290.998779,486.988678 2291.113037,483.382751 2290.955566,479.788727 
	C2290.861816,477.643280 2291.479004,476.931549 2293.720459,476.948792 
	C2306.883301,477.050232 2320.048096,477.042267 2333.211426,476.954590 
	C2335.347900,476.940338 2336.325439,477.472229 2336.023193,479.723267 
	C2335.891602,480.705353 2336.001221,481.719910 2336.001221,482.719696 
	C2336.001221,537.708130 2336.074951,592.696716 2335.967041,647.684998 
	C2335.919434,671.864197 2327.787354,693.051758 2312.072754,711.534973 
	C2297.383789,728.812012 2278.787842,739.601074 2257.022705,744.463867 
	C2248.915283,746.275208 2240.071289,744.507019 2231.612793,745.091125 
	C2216.439941,746.138672 2202.758789,741.668396 2189.628662,734.791504 
	C2186.308594,733.052490 2183.281982,730.759766 2180.002930,728.932983 
	C2176.947510,727.230835 2176.457520,725.897095 2179.300537,723.178650 
	C2188.331055,714.543274 2197.155029,705.686646 2205.881836,696.742737 
	C2208.047363,694.523315 2209.504395,694.355408 2212.423340,695.703674 
	C2231.229736,704.389709 2249.940674,703.954773 2266.996338,691.902100 
	C2282.330566,681.065918 2291.030518,665.903137 2291.006104,646.510132 
	C2290.974854,621.515381 2290.881836,596.519958 2291.031006,571.526062 
	C2291.186279,545.510620 2273.334473,522.411560 2247.395508,517.226074 
	C2230.261475,513.800781 2214.639648,517.925964 2201.044434,529.263794 
	C2176.188721,549.992432 2175.196533,589.505432 2199.674316,611.142029 
	C2202.495605,613.635864 2205.680908,615.718201 2209.067871,618.053711 
z"/>
<path fill="#010101" opacity="1.000000" stroke="none" 
	d="
M2012.094482,471.185944 
	C2033.504761,471.933258 2052.654297,477.993927 2070.078613,491.429352 
	C2070.078613,488.731567 2070.078613,486.821991 2070.078613,484.912445 
	C2070.078613,458.582733 2070.141113,432.252655 2070.005615,405.923645 
	C2069.987061,402.307190 2070.493164,400.763123 2074.721436,400.878204 
	C2087.044189,401.213654 2099.382568,401.086304 2111.712646,400.934204 
	C2114.763916,400.896545 2115.975830,401.397766 2115.971436,404.910889 
	C2115.861816,490.398987 2115.869141,575.887268 2115.949951,661.375488 
	C2115.953369,664.865540 2114.910889,666.015076 2111.389160,665.962158 
	C2099.393555,665.781860 2087.390137,665.739136 2075.396729,665.978699 
	C2071.309814,666.060303 2069.959473,664.973328 2069.982178,660.689270 
	C2070.145752,629.861206 2070.198486,599.030701 2069.974365,568.203247 
	C2069.836182,549.193787 2060.515625,534.792725 2044.877563,525.076111 
	C2018.028442,508.393433 1983.739868,517.233765 1968.190430,544.644226 
	C1957.551392,563.398865 1959.910034,590.580200 1975.478638,607.214539 
	C1991.872070,624.730164 2011.486816,628.765503 2033.870361,622.586609 
	C2036.167480,621.952515 2036.365356,622.311768 2037.160034,624.332214 
	C2041.728638,635.947754 2046.512939,647.480652 2051.395020,658.968933 
	C2052.413330,661.365112 2051.631348,662.100220 2049.554688,662.981201 
	C2039.026733,667.447876 2028.163940,669.696106 2016.655396,670.144836 
	C1999.420532,670.816895 1983.111816,667.834961 1967.927490,659.801086 
	C1951.144043,650.921204 1938.005859,638.121948 1929.047119,621.249573 
	C1921.849976,607.694763 1917.732910,593.424500 1916.839844,577.915283 
	C1915.190063,549.264709 1922.808472,523.995728 1942.007568,502.534607 
	C1956.596069,486.227295 1974.698242,476.313049 1996.460449,472.821320 
	C2001.535156,472.007080 2006.735352,473.006378 2012.094482,471.185944 
z"/>
<path fill="#010101" opacity="1.000000" stroke="none" 
	d="
M2368.020752,519.009033 
	C2384.725586,493.416656 2407.372803,477.364655 2437.711670,472.976166 
	C2468.108887,468.579224 2495.095947,475.855621 2518.541260,495.988190 
	C2538.095459,512.779541 2548.928711,533.905212 2552.186523,559.452576 
	C2553.551270,570.156189 2552.239746,580.448669 2551.021484,590.905334 
	C2550.646973,594.119629 2548.598877,593.903198 2546.373047,593.898682 
	C2536.041748,593.877563 2525.710205,593.889832 2515.378906,593.889832 
	C2479.885742,593.889893 2444.392334,593.879944 2408.899170,593.922546 
	C2407.335693,593.924438 2405.142822,593.031799 2404.331787,594.570740 
	C2403.593506,595.971802 2405.304688,597.421814 2406.154785,598.775879 
	C2414.970459,612.815552 2427.397217,622.153809 2443.739014,624.680298 
	C2454.947998,626.413330 2466.469971,625.808289 2476.932373,620.069580 
	C2479.455322,618.685669 2481.500000,618.415405 2484.505371,619.699524 
	C2497.383545,625.201721 2510.494141,630.160645 2523.524902,635.304993 
	C2526.440674,636.456177 2528.031006,637.357239 2524.890625,640.605347 
	C2510.650391,655.333801 2493.405762,665.094727 2473.522461,668.597412 
	C2442.994873,673.975281 2414.383789,668.233032 2389.953857,648.136963 
	C2370.709473,632.306763 2358.619141,612.071838 2354.914795,587.035767 
	C2351.526611,564.135498 2354.700928,542.514893 2366.029297,522.219360 
	C2366.585938,521.221741 2367.320068,520.323059 2368.020752,519.009033 
z"/>
<path fill="#010101" opacity="1.000000" stroke="none" 
	d="
M1899.001709,551.016602 
	C1902.121826,564.868408 1901.422241,578.281494 1898.963745,591.694031 
	C1898.672607,593.282654 1897.655762,593.890747 1896.141357,593.886902 
	C1894.974976,593.883911 1893.808472,593.892273 1892.642090,593.892334 
	C1847.482910,593.892700 1802.323608,593.892151 1757.164429,593.893188 
	C1751.466064,593.893372 1751.261719,594.027771 1754.139526,598.526245 
	C1764.649292,614.954712 1779.277954,624.512451 1799.190186,625.142700 
	C1808.879150,625.449341 1818.148926,624.114258 1826.712524,619.203552 
	C1827.825195,618.565552 1828.983154,618.135498 1830.755005,618.875671 
	C1844.270020,624.520996 1857.876709,629.955139 1871.551880,635.202271 
	C1875.345215,636.657715 1875.810669,637.699768 1872.782593,640.707397 
	C1857.322266,656.063782 1839.220703,665.963318 1817.437500,669.063782 
	C1802.615479,671.173401 1787.855469,670.969238 1773.615112,666.730225 
	C1748.785645,659.338745 1729.194824,644.589111 1715.691040,622.192505 
	C1707.010742,607.795837 1702.501343,592.263733 1701.934204,575.396362 
	C1700.595337,535.582275 1717.528687,505.779785 1751.033203,485.104095 
	C1764.771973,476.625824 1779.960083,472.740417 1796.162720,471.900055 
	C1827.511108,470.274170 1853.622314,481.404846 1874.983765,503.769897 
	C1887.495239,516.869202 1895.390625,532.721924 1899.001709,551.016602 
z"/>
<path fill="#010101" opacity="1.000000" stroke="none" 
	d="
M1527.603882,665.893311 
	C1509.491943,665.893433 1491.831177,665.788025 1474.173950,665.983398 
	C1470.690186,666.021973 1468.378784,664.898010 1466.000366,662.493713 
	C1447.723267,644.018066 1429.310181,625.676758 1410.978516,607.254822 
	C1409.870239,606.141113 1409.095947,604.695129 1408.166260,603.403748 
	C1407.732910,603.713440 1407.299561,604.023132 1406.866211,604.332764 
	C1406.866211,620.256348 1406.866211,636.179993 1406.866211,652.103577 
	C1406.866211,665.893433 1406.866211,665.893372 1393.154907,665.893372 
	C1383.991943,665.893372 1374.826904,665.778809 1365.667236,665.953186 
	C1362.297241,666.017334 1360.987549,665.115417 1360.991333,661.478638 
	C1361.080078,575.846985 1361.074219,490.215302 1361.001587,404.583649 
	C1360.999146,401.752808 1361.747314,400.923157 1364.604858,400.957001 
	C1377.264648,401.106964 1389.929688,401.161713 1402.587036,400.933167 
	C1406.176514,400.868378 1406.947266,401.962677 1406.937500,405.396667 
	C1406.818481,447.712372 1406.859741,490.028564 1406.859741,532.344604 
	C1406.859741,534.112610 1406.859863,535.880554 1406.859863,537.648560 
	C1407.300781,537.970520 1407.741699,538.292542 1408.182495,538.614502 
	C1409.100586,537.315735 1409.854492,535.853455 1410.961060,534.742615 
	C1429.184204,516.448364 1447.451416,498.198212 1465.709106,479.938385 
	C1467.200928,478.446472 1468.414185,476.908051 1471.034302,476.925171 
	C1491.158813,477.056580 1511.284668,476.997375 1532.289795,476.997375 
	C1530.613281,478.758606 1529.461548,480.021606 1528.254395,481.229187 
	C1499.514404,509.976837 1470.818604,538.769348 1441.947632,567.384888 
	C1438.979370,570.326904 1439.009521,571.711121 1441.959229,574.636475 
	C1471.294312,603.729614 1500.462891,632.990723 1529.640015,662.242798 
	C1530.490479,663.095398 1532.333862,663.768555 1531.653320,665.273926 
	C1531.002930,666.712158 1529.261230,665.549194 1527.603882,665.893311 
z"/>
<path fill="#010101" opacity="1.000000" stroke="none" 
	d="
M1027.743774,477.761292 
	C1039.018433,473.118073 1050.639771,471.258789 1062.175781,471.401825 
	C1085.540649,471.691650 1106.845337,478.726898 1125.294067,493.726257 
	C1142.862671,508.010193 1154.384033,526.009827 1159.355835,547.997681 
	C1166.428833,579.276917 1160.136230,607.787109 1140.316040,633.090088 
	C1125.670166,651.787354 1106.424438,663.407349 1083.272827,668.114075 
	C1062.620483,672.312744 1042.372925,670.826416 1022.729553,662.320801 
	C1000.535034,652.710388 984.091553,637.077271 973.133423,615.780701 
	C966.899841,603.665894 963.496033,590.645569 962.913025,576.846375 
	C962.156921,558.950867 964.826721,541.750244 973.180786,525.901611 
	C985.146423,503.201172 1002.895508,486.669861 1027.743774,477.761292 
z"/>
<path fill="#010101" opacity="1.000000" stroke="none" 
	d="
M1548.998047,414.013062 
	C1549.235840,409.561554 1547.335205,404.438782 1549.732544,401.961578 
	C1552.148926,399.464935 1557.297363,401.259979 1561.240967,401.206573 
	C1570.234131,401.084808 1579.239746,401.418243 1588.220581,401.064545 
	C1592.842163,400.882538 1594.102661,402.230865 1594.092041,406.911713 
	C1593.935547,476.037354 1594.033203,545.163574 1593.873657,614.289246 
	C1593.863037,618.889282 1594.615234,620.351196 1599.639526,620.306152 
	C1630.952026,620.025330 1662.268311,620.215698 1693.582764,620.090088 
	C1696.921021,620.076721 1698.169922,620.668152 1698.096313,624.357849 
	C1697.847046,636.845581 1697.888428,649.342957 1698.077881,661.832764 
	C1698.127319,665.088257 1697.256226,665.975525 1693.963501,665.967834 
	C1646.991333,665.857605 1600.018555,665.815125 1553.046997,666.015198 
	C1548.451660,666.034729 1548.981323,663.730652 1548.981934,660.865784 
	C1549.001831,578.747437 1548.998047,496.629089 1548.998047,414.013062 
z"/>
<path fill="#010101" opacity="1.000000" stroke="none" 
	d="
M1336.208496,629.792114 
	C1339.402222,632.986267 1342.218384,636.074707 1345.332520,638.825928 
	C1347.554932,640.789246 1347.680908,642.029480 1345.355835,644.093994 
	C1332.253174,655.728882 1317.384888,664.288025 1300.238647,667.796082 
	C1266.449463,674.709229 1235.899414,667.860229 1209.884399,644.330505 
	C1192.682007,628.771484 1182.481934,609.493225 1178.942261,586.514832 
	C1174.528931,557.863464 1181.135132,531.968079 1198.734741,509.234528 
	C1210.396973,494.170349 1225.715820,483.536926 1243.814575,477.082611 
	C1254.743530,473.185181 1266.155518,471.251801 1277.537964,471.385803 
	C1302.978394,471.685303 1325.510620,480.448547 1344.767334,497.350739 
	C1347.562134,499.803772 1347.267578,501.266937 1344.777466,503.685089 
	C1335.934448,512.272461 1327.187866,520.966797 1318.654785,529.860718 
	C1316.240479,532.377136 1314.642456,531.717712 1312.595581,529.883911 
	C1305.365479,523.406555 1297.060425,519.382263 1287.379517,517.770874 
	C1269.559082,514.804688 1253.921021,519.045227 1240.432739,531.008362 
	C1224.013794,545.570862 1219.421143,564.308777 1224.508179,584.687317 
	C1230.032104,606.816040 1245.582764,620.614258 1267.811035,624.589844 
	C1283.677734,627.427673 1299.337769,624.415344 1311.931885,612.730225 
	C1314.640747,610.217041 1316.571045,609.671265 1319.436035,612.853577 
	C1324.667725,618.664673 1330.422119,624.005249 1336.208496,629.792114 
z"/>
<path fill="#020202" opacity="1.000000" stroke="none" 
	d="
M896.064514,429.000000 
	C896.065430,420.672302 896.163635,412.842773 896.014771,405.017944 
	C895.961975,402.245575 896.286072,400.874054 899.683960,400.932281 
	C912.504272,401.152130 925.332397,401.138977 938.153381,400.939026 
	C941.414978,400.888214 941.930115,402.034515 941.927734,404.947937 
	C941.856995,490.386292 941.847961,575.824707 941.946777,661.263062 
	C941.951294,665.140076 940.577881,666.021484 936.994690,665.965027 
	C925.172791,665.778809 913.341003,665.693176 901.524048,665.997986 
	C897.035156,666.113770 895.968201,664.658936 895.975098,660.333496 
	C896.098450,583.389160 896.064575,506.444550 896.064514,429.000000 
z"/>
<path fill="#020202" opacity="1.000000" stroke="none" 
	d="
M57.078835,266.921661 
	C42.903736,258.486420 29.090801,250.134109 14.855762,241.526581 
	C26.057415,234.813812 36.938271,228.302994 47.809021,221.775345 
	C54.678967,217.650101 61.551682,213.528885 68.386414,209.345840 
	C71.013916,207.737732 73.506363,207.550415 76.215950,209.194946 
	C93.979149,219.975952 111.771049,230.709671 129.870712,241.650513 
	C118.221382,248.574570 106.738289,255.386459 95.269173,262.221832 
	C88.544235,266.229767 81.815765,270.233093 75.144875,274.329712 
	C73.193993,275.527740 71.800690,275.965424 69.576889,274.322968 
	C65.793594,271.528778 61.512768,269.408234 57.078835,266.921661 
z"/>
<path fill="#020202" opacity="1.000000" stroke="none" 
	d="
M619.722900,226.347809 
	C628.228882,231.539032 636.469666,236.471893 645.059326,241.613571 
	C630.643005,250.228958 616.530273,258.670166 602.409119,267.097351 
	C598.343872,269.523407 594.035706,271.615570 590.262024,274.428467 
	C588.167053,275.990112 586.837646,275.524200 585.105408,274.490753 
	C566.884460,263.620239 548.662354,252.751617 530.008850,241.624969 
	C545.149048,232.551971 559.911865,223.697708 574.684753,214.860260 
	C576.922729,213.521423 579.557678,212.631516 581.400818,210.890167 
	C585.840515,206.695816 589.791809,208.042801 594.238647,210.852280 
	C602.540222,216.097137 611.040283,221.027939 619.722900,226.347809 
z"/>
<path fill="#020202" opacity="1.000000" stroke="none" 
	d="
M143.908401,758.384033 
	C143.908463,778.168762 143.785675,797.500000 144.012177,816.827026 
	C144.057419,820.687683 143.114212,822.934326 139.664261,824.951904 
	C122.257210,835.131775 105.021927,845.605408 87.003632,856.409363 
	C87.003632,854.179810 87.003632,852.604919 87.003632,851.030029 
	C87.003647,831.533691 87.076164,812.036804 86.938499,792.541443 
	C86.912987,788.928528 87.685524,786.891846 91.227028,784.855713 
	C107.137001,775.708923 122.672531,765.912170 138.507309,756.629944 
	C139.591629,755.994385 144.083252,749.887451 143.908401,758.384033 
z"/>
<path fill="#020202" opacity="1.000000" stroke="none" 
	d="
M533.259827,832.677307 
	C532.543701,832.228516 532.056885,832.095642 531.645020,831.841492 
	C526.506592,828.669739 519.623352,826.569214 516.771973,821.971130 
	C514.224304,817.862793 516.086182,810.992859 516.078552,805.341431 
	C516.055847,788.377930 516.070374,771.414429 516.070374,753.593628 
	C522.676270,757.457336 528.820557,760.982300 534.897278,764.619995 
	C546.222961,771.399963 557.448608,778.349731 568.852966,784.993530 
	C571.848083,786.738342 573.115723,788.589539 573.083313,792.194092 
	C572.893188,813.319336 572.989929,834.447144 572.989929,856.501160 
	C559.487732,848.439270 546.505859,840.688049 533.259827,832.677307 
z"/>
<path fill="#010101" opacity="1.000000" stroke="none" 
	d="
M605.682373,298.844574 
	C622.798218,288.566864 639.584229,278.485992 657.002747,268.025238 
	C657.002747,281.311218 657.002686,293.890381 657.002686,306.469574 
	C657.002625,315.466339 656.912231,324.464539 657.058594,333.458923 
	C657.101685,336.107758 656.159912,337.620453 653.913818,338.957245 
	C637.481567,348.736847 621.121765,358.638184 604.727417,368.481659 
	C604.052673,368.886780 603.261597,369.098145 602.046387,369.595581 
	C602.046387,351.050873 602.046387,332.958282 602.046387,314.865723 
	C602.046387,311.366974 602.208313,307.858307 601.994629,304.372650 
	C601.826721,301.632843 602.870422,299.961060 605.682373,298.844574 
z"/>
<path fill="#010101" opacity="1.000000" stroke="none" 
	d="
M638.001404,834.955200 
	C626.090454,842.049133 614.545654,849.079834 603.008972,856.105591 
	C601.385010,854.680115 602.086243,853.097717 602.082520,851.753540 
	C602.026917,831.772400 602.174805,811.789307 601.917358,791.811340 
	C601.873718,788.422607 603.191650,786.715393 605.672791,785.240234 
	C622.520264,775.223938 639.372437,765.215515 656.282227,755.169495 
	C657.633606,756.181824 656.963135,757.614990 656.966064,758.793335 
	C657.016785,779.107544 656.937927,799.422424 657.073059,819.735840 
	C657.093079,822.755188 656.248596,824.492798 653.528320,825.939575 
	C648.351807,828.692688 643.407959,831.883118 638.001404,834.955200 
z"/>
<path fill="#FFFFFF" opacity="1.000000" stroke="none" 
	d="
M240.940796,455.917786 
	C266.288330,441.529633 291.451569,427.523010 316.167786,412.767548 
	C326.308899,406.713348 334.757446,406.937286 344.940643,413.090790 
	C370.131683,428.313049 395.965057,442.472076 421.533508,457.070251 
	C426.364838,459.828705 431.085266,462.792267 435.997620,465.395569 
	C443.539459,469.392273 444.892731,476.401733 444.949463,483.806854 
	C445.109039,504.631439 445.559143,525.478149 444.809906,546.277039 
	C444.282684,560.912415 444.054443,575.545410 444.458221,590.143188 
	C444.681854,598.229553 441.726501,603.260315 435.155823,607.072876 
	C421.585632,614.947083 408.149231,623.053467 394.536499,630.852478 
	C376.391541,641.248047 358.075317,651.345032 339.949066,661.772644 
	C333.169861,665.672607 326.856232,665.704407 320.074768,661.792175 
	C294.299957,646.922852 268.404755,632.262390 242.598343,617.447510 
	C235.657455,613.462891 228.843857,609.253357 222.024673,605.061157 
	C217.863708,602.503174 215.765930,599.144714 215.577499,593.783264 
	C214.372681,559.500977 215.272888,525.215210 215.028885,490.933868 
	C214.994843,486.152985 215.497894,481.354645 215.978973,476.587250 
	C216.545090,470.976929 220.152420,467.565277 224.827774,464.970673 
	C230.110321,462.039124 235.329697,458.993683 240.940796,455.917786 
z"/>
<path fill="#FFFFFF" opacity="1.000000" stroke="none" 
	d="
M701.970093,499.980988 
	C701.970154,483.001740 702.054321,466.519501 701.897217,450.039581 
	C701.866943,446.861145 702.593201,445.878326 705.938354,445.902222 
	C728.411865,446.062775 750.887268,445.927399 773.361694,446.007385 
	C787.268982,446.056885 798.588196,451.448792 804.616455,464.308105 
	C814.203918,484.760193 801.224609,508.434052 779.722778,510.175110 
	C757.646484,511.962708 735.542786,510.488281 713.458252,510.997406 
	C713.125488,511.005096 712.792358,510.998413 712.459412,510.998413 
	C701.971313,510.998413 701.971313,510.998444 701.970093,499.980988 
z"/>
<path fill="#FFFFFF" opacity="1.000000" stroke="none" 
	d="
M2460.458008,517.098999 
	C2472.742188,519.008911 2483.010742,524.169189 2491.676025,532.307922 
	C2495.484131,535.884888 2498.570068,540.184692 2501.066895,544.865906 
	C2502.715088,547.955872 2502.388428,549.084473 2498.514160,549.063049 
	C2474.867920,548.932495 2451.221191,548.997803 2427.574463,548.997864 
	C2419.797607,548.997864 2412.020752,548.997864 2403.621826,548.997864 
	C2408.448730,536.875244 2417.009033,528.993713 2427.523926,523.149048 
	C2437.588379,517.554688 2448.637939,516.153503 2460.458008,517.098999 
z"/>
<path fill="#FFFFFF" opacity="1.000000" stroke="none" 
	d="
M1817.000000,548.997925 
	C1795.078979,548.997986 1773.657837,548.997986 1751.678223,548.997986 
	C1755.772949,538.576538 1762.677368,531.419861 1771.402832,525.792480 
	C1787.642212,515.319092 1804.916016,513.971985 1822.589355,521.053284 
	C1834.131470,525.677979 1843.111816,533.753418 1849.089355,544.910767 
	C1850.817261,548.135925 1850.259155,549.145264 1846.473999,549.065613 
	C1836.819824,548.862305 1827.158447,548.997925 1817.000000,548.997925 
z"/>
<path fill="#FFFFFF" opacity="1.000000" stroke="none" 
	d="
M1015.194458,543.356567 
	C1024.684937,528.575500 1037.742310,519.475891 1054.781616,517.187134 
	C1069.500854,515.210022 1083.219727,518.896912 1095.264648,527.759521 
	C1110.069458,538.653076 1117.105591,553.683838 1116.896484,571.815857 
	C1116.693726,589.398193 1109.121094,603.594360 1095.191406,614.416870 
	C1066.236816,636.912598 1021.945618,623.282288 1010.652832,588.270325 
	C1005.675415,572.838379 1007.235840,557.924744 1015.194458,543.356567 
z"/>
<path fill="#020202" opacity="1.000000" stroke="none" 
	d="
M291.318970,530.803589 
	C298.748749,535.025879 305.828430,539.109558 312.994141,543.036377 
	C315.178131,544.233215 315.862762,545.809814 315.856232,548.221313 
	C315.789978,572.693054 315.740509,597.165405 315.884003,621.636536 
	C315.911407,626.314087 313.911316,625.068176 311.526611,623.705139 
	C294.210083,613.807129 276.901276,603.895508 259.589966,593.988342 
	C255.476990,591.634521 251.407074,589.200317 247.231903,586.962585 
	C245.158081,585.851013 244.018677,584.601685 244.027679,582.013428 
	C244.117462,556.213501 244.082138,530.413147 244.082138,503.542389 
	C260.097626,512.779785 275.549774,521.692200 291.318970,530.803589 
z"/>
<path fill="#020202" opacity="1.000000" stroke="none" 
	d="
M362.604858,615.621399 
	C357.297821,618.612732 352.242096,621.298584 347.310638,624.195923 
	C344.887970,625.619324 344.119293,625.113281 344.122772,622.394775 
	C344.155060,597.265747 344.177765,572.136658 344.074402,547.008057 
	C344.065979,544.959900 345.010101,544.028748 346.448730,543.209961 
	C362.610413,534.011658 378.789886,524.844604 394.949524,515.642700 
	C401.707916,511.794220 408.430359,507.882690 415.892670,503.582947 
	C415.892670,507.445587 415.892670,510.531006 415.892670,513.616455 
	C415.892670,535.583496 415.763000,557.552002 416.005768,579.516418 
	C416.052399,583.739136 414.592712,585.973633 411.068817,587.947144 
	C394.946472,596.976746 378.949432,606.230103 362.604858,615.621399 
z"/>
<path fill="#020202" opacity="1.000000" stroke="none" 
	d="
M376.943115,465.083801 
	C384.945892,469.592651 392.583038,474.025787 400.478027,478.608612 
	C398.191711,481.835785 394.238159,482.859863 391.042084,484.723755 
	C372.250366,495.682526 353.241516,506.268372 334.407806,517.156311 
	C331.364075,518.915955 329.029449,519.209534 325.855743,517.375732 
	C304.498566,505.035095 283.024261,492.897247 261.606964,480.660400 
	C260.775391,480.185333 260.136871,479.372375 259.395660,478.705353 
	C282.098267,465.616882 304.683380,452.613953 327.238739,439.559662 
	C329.088409,438.489105 330.272797,438.424805 332.384949,439.671875 
	C347.005524,448.303986 361.823120,456.602478 376.943115,465.083801 
z"/>
</svg>