<svg version="1.1" id="Layer_1" xmlns="http://www.w3.org/2000/svg" xmlns:xlink="http://www.w3.org/1999/xlink" x="0px" y="0px"
	 width="100%" viewBox="0 0 656 650" enable-background="new 0 0 656 650" xml:space="preserve">
<path fill="#FAFAFA" opacity="1.000000" stroke="none" 
	d="
M657.000000,132.000000 
	C657.000000,204.354233 657.000000,276.708466 656.635620,349.595947 
	C654.966431,351.063354 653.696045,352.742279 652.351074,352.804291 
	C646.111267,353.092133 639.850830,352.931610 633.605286,352.931610 
	C633.319092,349.468170 636.065613,345.091827 630.125305,345.052307 
	C619.560913,344.981964 608.995850,345.010620 598.431030,345.000671 
	C594.161865,344.996643 589.892761,345.000000 585.701416,345.000000 
	C585.135559,341.723511 588.136414,337.511597 582.677551,337.086548 
	C578.787415,336.783630 574.856140,337.002594 570.943176,337.001282 
	C557.473450,336.996826 544.003784,336.997925 530.460327,336.592651 
	C531.190063,292.778320 519.931335,252.880844 495.173157,216.771408 
	C496.631561,215.474548 497.820801,214.351471 499.077332,213.309555 
	C518.054443,197.573364 537.055176,181.865692 556.016846,166.111053 
	C563.569153,159.836105 563.530396,159.794556 572.089111,164.305267 
	C572.307251,164.420227 572.665649,164.269012 573.049927,164.233490 
	C573.185730,163.783722 573.446655,163.321869 573.447144,162.859741 
	C573.471313,141.198013 573.544189,119.535568 573.335266,97.875877 
	C573.319397,96.229355 571.661011,93.990730 570.135925,93.059967 
	C553.366821,82.825851 536.476074,72.790749 519.603699,62.726295 
	C518.550415,62.098045 517.374634,61.675240 515.763672,60.928776 
	C515.763672,83.566589 515.711792,105.549431 515.888733,127.530426 
	C515.899719,128.893539 517.426514,130.684906 518.732178,131.521835 
	C524.806030,135.415176 531.050415,139.042526 537.676270,143.031433 
	C517.014526,160.375656 497.041443,177.141754 477.048126,193.924850 
	C436.369598,152.414825 387.778107,130.191162 329.946838,130.193024 
	C271.964783,130.194870 223.272934,152.595383 182.873840,193.927628 
	C162.566284,176.930161 142.573792,160.196396 122.074738,143.038635 
	C128.526337,139.175339 134.238098,135.513275 140.188934,132.293015 
	C143.192596,130.667587 144.355331,128.821350 144.293655,125.320541 
	C144.061859,112.160896 144.200485,98.994728 144.200378,85.831009 
	C144.200317,77.711563 144.200378,69.592110 144.200378,60.708160 
	C142.122665,61.800335 140.666000,62.480251 139.293320,63.300686 
	C123.000153,73.038918 106.766808,82.878784 90.392372,92.478081 
	C87.413673,94.224304 86.345390,96.133575 86.372574,99.567924 
	C86.532150,119.728798 86.440025,139.891617 86.454994,160.053757 
	C86.455917,161.296600 86.646698,162.539291 86.784363,164.209305 
	C90.198547,162.238983 93.157341,160.531494 96.051880,158.861069 
	C117.839241,177.059616 139.268219,195.055740 160.846024,212.871628 
	C163.875122,215.372650 164.177704,217.114807 162.221085,220.623764 
	C155.581818,232.530350 148.616608,244.362885 143.279907,256.865662 
	C132.115326,283.022003 128.516022,310.684052 129.058487,338.996246 
	C115.269196,339.503143 101.886467,340.012054 88.887924,340.506348 
	C87.167313,344.527161 84.571091,348.128387 84.186661,351.951965 
	C83.003433,363.720520 82.378746,375.566833 82.076775,387.396667 
	C81.741341,400.537354 82.009270,413.693176 81.996170,426.842407 
	C81.989311,433.723694 80.735695,434.992615 73.903328,434.995697 
	C49.602222,435.006683 25.301109,435.000000 1.000000,435.000000 
	C1.000000,333.979095 1.000000,232.958206 1.345645,131.331177 
	C20.306969,141.818329 38.922649,152.911621 58.223999,164.413528 
	C58.223999,141.293106 58.256325,119.307999 58.136131,97.323715 
	C58.129578,96.124191 57.150936,94.432327 56.118362,93.810249 
	C38.878410,83.423965 21.557592,73.171921 4.091561,62.607620 
	C2.952222,61.883514 1.976112,61.441757 1.000000,61.000000 
	C1.000000,41.067539 1.000000,21.135078 1.000000,1.000000 
	C24.020498,1.000000 47.041592,1.000000 70.432205,1.331583 
	C52.176807,12.866719 33.551884,24.070272 14.419313,35.579189 
	C15.321555,36.199581 15.716732,36.504448 16.142033,36.758976 
	C33.999699,47.446121 51.823238,58.191788 69.792076,68.688721 
	C71.184372,69.502060 73.960754,69.201691 75.479332,68.338234 
	C84.884689,62.990356 94.115799,57.335873 103.401512,51.777756 
	C112.236160,46.489628 121.066826,41.194847 130.358276,35.627964 
	C112.713943,25.031580 95.600998,14.775259 78.521698,4.463210 
	C76.906334,3.487895 75.502205,2.162737 74.000000,1.000000 
	C244.354233,1.000000 414.708466,1.000000 585.502930,1.349632 
	C567.340393,12.908680 548.737671,24.118097 529.572327,35.666496 
	C548.722961,47.105362 567.257996,58.241028 585.919556,69.160591 
	C587.021118,69.805138 589.385071,69.136208 590.746216,68.354866 
	C598.975647,63.630817 607.088074,58.702599 615.232056,53.829987 
	C625.201111,47.865425 635.162659,41.888397 645.606018,35.630009 
	C630.050720,26.280075 615.063904,17.311562 600.124573,8.264416 
	C596.338501,5.971576 592.704102,3.428233 589.000000,0.999999 
	C611.590149,1.000000 634.180237,1.000000 657.000000,1.000000 
	C657.000000,21.353653 657.000000,41.708168 656.746582,62.188751 
	C638.926025,72.783119 621.316650,83.182594 603.874756,93.855621 
	C602.537231,94.674065 601.782104,97.419289 601.768494,99.276329 
	C601.621216,119.416107 601.671631,139.557358 601.689026,159.698196 
	C601.690063,160.939682 601.867310,162.181015 602.027771,164.272583 
	C610.330505,159.311996 617.950562,154.687958 625.640015,150.182526 
	C636.065491,144.074097 646.544128,138.056534 657.000000,132.000000 
z"/>
<path fill="#F4F4F4" opacity="1.000000" stroke="none" 
	d="
M572.000000,651.000000 
	C410.979095,651.000000 249.958206,651.000000 88.468079,650.645752 
	C105.533005,639.744141 123.032150,629.137634 140.639038,618.713196 
	C143.282288,617.148193 144.201126,615.423645 144.181274,612.391541 
	C144.049469,592.253357 144.117630,572.113892 144.101791,551.974854 
	C144.100800,550.704895 143.940079,549.435059 143.822205,547.702759 
	C142.564178,548.220520 141.637634,548.472534 140.844513,548.947388 
	C123.578842,559.283997 106.282196,569.571106 89.154037,580.131348 
	C87.648140,581.059753 86.495590,583.800598 86.477417,585.711975 
	C86.285866,605.849243 86.343826,625.989075 86.386078,646.127991 
	C86.389488,647.752380 86.786110,649.376038 87.000000,651.000000 
	C77.645767,651.000000 68.291542,651.000000 58.453724,650.971802 
	C57.970135,650.943665 58.016312,650.999023 58.061760,650.468994 
	C58.147339,628.691223 58.106083,607.442566 58.310360,586.196350 
	C58.343136,582.787659 57.309139,580.869141 54.366356,579.139771 
	C40.469872,570.973633 26.714277,562.567749 12.926729,553.864929 
	C12.707868,550.985352 11.804069,550.270081 9.518215,552.260986 
	C7.449301,551.105408 5.724456,550.018005 4.049947,548.559204 
	C6.108234,547.125183 8.066886,545.275879 10.133301,545.146423 
	C16.526628,544.745728 22.961006,545.000061 31.052202,545.000061 
	C26.402205,540.693909 28.119028,538.715881 31.719566,537.139465 
	C32.435501,536.825989 32.692234,535.463745 33.513779,534.678467 
	C45.010757,541.179260 56.255402,547.420715 67.240799,554.089294 
	C70.809532,556.255676 73.375984,556.529236 77.045883,554.190002 
	C88.135147,547.121399 99.523811,540.522888 110.788132,533.728455 
	C116.872643,530.058472 122.941589,526.362610 129.508560,522.380676 
	C126.777817,520.562683 124.606636,519.117249 121.956909,517.353149 
	C142.188156,500.276917 162.215714,483.372620 182.243134,466.468414 
	C222.985245,507.904694 271.577240,530.144836 329.376892,530.191772 
	C387.364441,530.238831 436.100464,507.947540 476.707458,466.444733 
	C496.897095,483.425385 516.954590,500.294922 537.269714,517.381104 
	C534.476807,519.146729 532.271240,520.541016 529.935364,522.017700 
	C530.454285,522.634583 530.683533,523.097351 531.056274,523.323059 
	C548.860474,534.103088 566.649719,544.908813 584.554626,555.519226 
	C585.736145,556.219421 588.129578,555.963196 589.421997,555.218811 
	C602.014465,547.965820 614.492371,540.513794 627.012695,533.516968 
	C628.245239,534.940857 629.474487,536.857788 630.689636,536.848877 
	C639.461365,536.784607 648.230225,536.330505 657.000000,536.000000 
	C657.000000,537.388916 657.000000,538.777771 656.667419,540.634888 
	C656.556580,542.068665 656.778259,543.034363 657.000000,544.000000 
	C657.000000,545.388916 657.000000,546.777771 656.615845,548.629456 
	C654.771118,549.663025 653.186584,550.030762 651.868835,550.835510 
	C636.546204,560.193176 621.328613,569.725037 605.916626,578.931946 
	C602.816528,580.783875 601.555237,582.652893 601.588074,586.308167 
	C601.767822,606.302917 601.685974,626.300293 601.640320,646.296570 
	C601.636719,647.864868 601.223083,649.432190 601.000000,651.000000 
	C591.979126,651.000000 582.958191,651.000000 573.548645,650.594910 
	C573.288513,649.548950 573.528748,648.908264 573.529358,648.267273 
	C573.549866,627.139404 573.629089,606.010559 573.400208,584.885193 
	C573.380920,583.105225 571.685364,580.675781 570.070862,579.683594 
	C553.361389,569.414856 536.513000,559.371948 519.684387,549.297729 
	C518.642761,548.674133 517.442749,548.314880 515.808472,547.615112 
	C515.808472,570.255066 515.745239,592.201599 515.950134,614.145508 
	C515.963867,615.615356 517.703003,617.564514 519.153076,618.449707 
	C535.474731,628.413513 551.904541,638.200073 568.278625,648.078430 
	C569.618774,648.887024 570.764099,650.018555 572.000000,651.000000 
M35.208054,544.673096 
	C35.290806,543.996399 35.373558,543.319702 35.456314,542.643005 
	C34.911057,542.735474 34.365799,542.827942 33.820545,542.920410 
	C34.078117,543.561035 34.335686,544.201660 35.208054,544.673096 
z"/>
<path fill="#F7F7F7" opacity="1.000000" stroke="none" 
	d="
M657.000000,535.531372 
	C648.230225,536.330505 639.461365,536.784607 630.689636,536.848877 
	C629.474487,536.857788 628.245239,534.940857 627.348267,533.369995 
	C631.622925,530.213379 635.487366,527.461365 639.543335,525.028748 
	C644.081665,522.306824 644.215942,522.337524 639.717468,519.561829 
	C623.449890,509.524078 607.109253,499.604431 590.877136,489.509979 
	C588.425659,487.985443 586.558167,487.868225 584.109741,489.461578 
	C578.534546,493.089691 572.736084,496.372955 567.119019,499.939209 
	C565.057190,501.248291 563.572632,501.536194 561.458252,499.752869 
	C540.464966,482.046906 519.403076,464.421539 498.262543,446.891663 
	C495.822693,444.868530 495.655182,443.365051 497.213623,440.674042 
	C502.631409,431.319061 508.192535,422.007782 512.921387,412.300995 
	C524.477173,388.581055 529.470459,363.223755 530.534058,336.996857 
	C544.003784,336.997925 557.473450,336.996826 570.943176,337.001282 
	C574.856140,337.002594 578.787415,336.783630 582.677551,337.086548 
	C588.136414,337.511597 585.135559,341.723511 585.701416,345.000000 
	C589.892761,345.000000 594.161865,344.996643 598.431030,345.000671 
	C608.995850,345.010620 619.560913,344.981964 630.125305,345.052307 
	C636.065613,345.091827 633.319092,349.468170 633.605286,352.931610 
	C639.850830,352.931610 646.111267,353.092133 652.351074,352.804291 
	C653.696045,352.742279 654.966431,351.063354 656.635620,350.064575 
	C657.000000,411.687561 657.000000,473.375122 657.000000,535.531372 
z"/>
<path fill="#F7F7F7" opacity="1.000000" stroke="none" 
	d="
M33.160717,534.585083 
	C32.692234,535.463745 32.435501,536.825989 31.719566,537.139465 
	C28.119028,538.715881 26.402205,540.693909 31.052202,545.000061 
	C22.961006,545.000061 16.526628,544.745728 10.133301,545.146423 
	C8.066886,545.275879 6.108234,547.125183 3.724407,548.555908 
	C2.565688,548.616028 1.782844,548.308044 1.000000,548.000000 
	C1.000000,510.645782 1.000000,473.291534 1.000000,435.468658 
	C25.301109,435.000000 49.602222,435.006683 73.903328,434.995697 
	C80.735695,434.992615 81.989311,433.723694 81.996170,426.842407 
	C82.009270,413.693176 81.741341,400.537354 82.076775,387.396667 
	C82.378746,375.566833 83.003433,363.720520 84.186661,351.951965 
	C84.571091,348.128387 87.167313,344.527161 88.887924,340.506348 
	C101.886467,340.012054 115.269196,339.503143 129.178406,339.446442 
	C131.133331,378.149597 143.589310,412.784210 164.609970,444.456879 
	C142.297134,463.090302 120.420776,481.313416 98.627548,499.635437 
	C96.625877,501.318298 95.182709,501.460754 92.986488,500.054718 
	C87.521751,496.556061 81.793098,493.466766 76.361237,489.920807 
	C73.511528,488.060516 71.355850,487.818665 68.300331,489.797089 
	C61.463917,494.223694 54.260544,498.080139 47.252445,502.245880 
	C36.427681,508.680267 25.641293,515.179199 13.967896,522.172363 
	C20.899591,526.655334 27.030155,530.620239 33.160717,534.585083 
z"/>
<path fill="#040404" opacity="1.000000" stroke="none" 
	d="
M73.625000,1.000000 
	C75.502205,2.162737 76.906334,3.487895 78.521698,4.463210 
	C95.600998,14.775259 112.713943,25.031580 130.358276,35.627964 
	C121.066826,41.194847 112.236160,46.489628 103.401512,51.777756 
	C94.115799,57.335873 84.884689,62.990356 75.479332,68.338234 
	C73.960754,69.201691 71.184372,69.502060 69.792076,68.688721 
	C51.823238,58.191788 33.999699,47.446121 16.142033,36.758976 
	C15.716732,36.504448 15.321555,36.199581 14.419313,35.579189 
	C33.551884,24.070272 52.176807,12.866719 70.900864,1.331583 
	C71.750000,1.000000 72.500000,1.000000 73.625000,1.000000 
z"/>
<path fill="#030303" opacity="1.000000" stroke="none" 
	d="
M588.625000,0.999999 
	C592.704102,3.428233 596.338501,5.971576 600.124573,8.264416 
	C615.063904,17.311562 630.050720,26.280075 645.606018,35.630009 
	C635.162659,41.888397 625.201111,47.865425 615.232056,53.829987 
	C607.088074,58.702599 598.975647,63.630817 590.746216,68.354866 
	C589.385071,69.136208 587.021118,69.805138 585.919556,69.160591 
	C567.257996,58.241028 548.722961,47.105362 529.572327,35.666496 
	C548.737671,24.118097 567.340393,12.908680 585.971558,1.349632 
	C586.750000,1.000000 587.500000,1.000000 588.625000,0.999999 
z"/>
<path fill="#040404" opacity="1.000000" stroke="none" 
	d="
M572.250000,651.000000 
	C570.764099,650.018555 569.618774,648.887024 568.278625,648.078430 
	C551.904541,638.200073 535.474731,628.413513 519.153076,618.449707 
	C517.703003,617.564514 515.963867,615.615356 515.950134,614.145508 
	C515.745239,592.201599 515.808472,570.255066 515.808472,547.615112 
	C517.442749,548.314880 518.642761,548.674133 519.684387,549.297729 
	C536.513000,559.371948 553.361389,569.414856 570.070862,579.683594 
	C571.685364,580.675781 573.380920,583.105225 573.400208,584.885193 
	C573.629089,606.010559 573.549866,627.139404 573.529358,648.267273 
	C573.528748,648.908264 573.288513,649.548950 573.079956,650.594910 
	C573.000000,651.000000 572.500000,651.000000 572.250000,651.000000 
z"/>
<path fill="#040404" opacity="1.000000" stroke="none" 
	d="
M87.250000,651.000000 
	C86.786110,649.376038 86.389488,647.752380 86.386078,646.127991 
	C86.343826,625.989075 86.285866,605.849243 86.477417,585.711975 
	C86.495590,583.800598 87.648140,581.059753 89.154037,580.131348 
	C106.282196,569.571106 123.578842,559.283997 140.844513,548.947388 
	C141.637634,548.472534 142.564178,548.220520 143.822205,547.702759 
	C143.940079,549.435059 144.100800,550.704895 144.101791,551.974854 
	C144.117630,572.113892 144.049469,592.253357 144.181274,612.391541 
	C144.201126,615.423645 143.282288,617.148193 140.639038,618.713196 
	C123.032150,629.137634 105.533005,639.744141 87.999420,650.645752 
	C88.000000,651.000000 87.500000,651.000000 87.250000,651.000000 
z"/>
<path fill="#020202" opacity="1.000000" stroke="none" 
	d="
M4.254789,62.889973 
	C21.557592,73.171921 38.878410,83.423965 56.118362,93.810249 
	C57.150936,94.432327 58.129578,96.124191 58.136131,97.323715 
	C58.256325,119.307999 58.223999,141.293106 58.223999,164.413528 
	C38.922649,152.911621 20.306969,141.818329 1.345645,130.862518 
	C1.000000,130.555557 1.000000,130.111099 1.293117,129.036255 
	C1.721408,126.598511 1.971177,124.791351 1.974049,122.983795 
	C2.003110,104.692200 1.930678,86.400017 2.090498,68.109772 
	C2.105755,66.363670 3.500474,64.629616 4.254789,62.889973 
z"/>
<path fill="#020202" opacity="1.000000" stroke="none" 
	d="
M1.000000,548.333313 
	C1.782844,548.308044 2.565688,548.616028 3.674072,548.927368 
	C5.724456,550.018005 7.449301,551.105408 9.669835,552.538635 
	C11.079831,553.338806 11.994139,553.793091 12.908454,554.247375 
	C26.714277,562.567749 40.469872,570.973633 54.366356,579.139771 
	C57.309139,580.869141 58.343136,582.787659 58.310360,586.196350 
	C58.106083,607.442566 58.147339,628.691223 57.744041,650.245544 
	C38.587254,639.368042 19.793636,628.184021 1.000008,617.000000 
	C1.000000,616.555542 1.000000,616.111084 1.293984,615.036865 
	C1.721572,613.764709 1.971171,613.122559 1.971933,612.480103 
	C1.995167,592.879395 2.011842,573.278687 1.953814,553.678162 
	C1.950182,552.451172 1.332169,551.226013 0.999996,550.000000 
	C1.000000,549.555542 1.000000,549.111084 1.000000,548.333313 
z"/>
<path fill="#020202" opacity="1.000000" stroke="none" 
	d="
M601.333313,651.000000 
	C601.223083,649.432190 601.636719,647.864868 601.640320,646.296570 
	C601.685974,626.300293 601.767822,606.302917 601.588074,586.308167 
	C601.555237,582.652893 602.816528,580.783875 605.916626,578.931946 
	C621.328613,569.725037 636.546204,560.193176 651.868835,550.835510 
	C653.186584,550.030762 654.771118,549.663025 656.615845,549.046143 
	C657.000000,572.020874 657.000000,595.041809 656.692627,618.279663 
	C646.958862,624.087585 637.483887,629.598816 628.120422,635.293335 
	C619.683411,640.424377 611.368652,645.756531 603.000000,651.000000 
	C602.555542,651.000000 602.111084,651.000000 601.333313,651.000000 
z"/>
<path fill="#020202" opacity="1.000000" stroke="none" 
	d="
M657.000000,131.531342 
	C646.544128,138.056534 636.065491,144.074097 625.640015,150.182526 
	C617.950562,154.687958 610.330505,159.311996 602.027771,164.272583 
	C601.867310,162.181015 601.690063,160.939682 601.689026,159.698196 
	C601.671631,139.557358 601.621216,119.416107 601.768494,99.276329 
	C601.782104,97.419289 602.537231,94.674065 603.874756,93.855621 
	C621.316650,83.182594 638.926025,72.783119 656.746582,62.657410 
	C657.000000,85.687561 657.000000,108.375122 657.000000,131.531342 
z"/>
<path fill="#F2F2F2" opacity="1.000000" stroke="none" 
	d="
M1.000008,617.468628 
	C19.793636,628.184021 38.587254,639.368042 57.698593,650.775513 
	C58.016312,650.999023 57.970135,650.943665 57.985069,650.971802 
	C39.091812,651.000000 20.183624,651.000000 1.000000,651.000000 
	C1.000000,639.980652 1.000000,628.958984 1.000008,617.468628 
z"/>
<path fill="#F1F1F1" opacity="1.000000" stroke="none" 
	d="
M603.468628,651.000000 
	C611.368652,645.756531 619.683411,640.424377 628.120422,635.293335 
	C637.483887,629.598816 646.958862,624.087585 656.692627,618.748291 
	C657.000000,629.612122 657.000000,640.224182 657.000000,651.000000 
	C639.312744,651.000000 621.625000,651.000000 603.468628,651.000000 
z"/>
<path fill="#111111" opacity="1.000000" stroke="none" 
	d="
M4.091561,62.607620 
	C3.500474,64.629616 2.105755,66.363670 2.090498,68.109772 
	C1.930678,86.400017 2.003110,104.692200 1.974049,122.983795 
	C1.971177,124.791351 1.721408,126.598511 1.293117,128.702927 
	C1.000000,106.645775 1.000000,84.291542 1.000000,61.468658 
	C1.976112,61.441757 2.952222,61.883514 4.091561,62.607620 
z"/>
<path fill="#0D0D0D" opacity="1.000000" stroke="none" 
	d="
M0.999996,550.468628 
	C1.332169,551.226013 1.950182,552.451172 1.953814,553.678162 
	C2.011842,573.278687 1.995167,592.879395 1.971933,612.480103 
	C1.971171,613.122559 1.721572,613.764709 1.293984,614.703491 
	C1.000000,593.645752 1.000000,572.291565 0.999996,550.468628 
z"/>
<path fill="#F7F7F7" opacity="1.000000" stroke="none" 
	d="
M657.000000,543.625000 
	C656.778259,543.034363 656.556580,542.068665 656.667419,541.051514 
	C657.000000,541.750000 657.000000,542.500000 657.000000,543.625000 
z"/>
<path fill="#020202" opacity="1.000000" stroke="none" 
	d="
M33.513786,534.678467 
	C27.030155,530.620239 20.899591,526.655334 13.967896,522.172363 
	C25.641293,515.179199 36.427681,508.680267 47.252445,502.245880 
	C54.260544,498.080139 61.463917,494.223694 68.300331,489.797089 
	C71.355850,487.818665 73.511528,488.060516 76.361237,489.920807 
	C81.793098,493.466766 87.521751,496.556061 92.986488,500.054718 
	C95.182709,501.460754 96.625877,501.318298 98.627548,499.635437 
	C120.420776,481.313416 142.297134,463.090302 164.609970,444.456879 
	C143.589310,412.784210 131.133331,378.149597 129.584961,339.448456 
	C128.516022,310.684052 132.115326,283.022003 143.279907,256.865662 
	C148.616608,244.362885 155.581818,232.530350 162.221085,220.623764 
	C164.177704,217.114807 163.875122,215.372650 160.846024,212.871628 
	C139.268219,195.055740 117.839241,177.059616 96.051880,158.861069 
	C93.157341,160.531494 90.198547,162.238983 86.784363,164.209305 
	C86.646698,162.539291 86.455917,161.296600 86.454994,160.053757 
	C86.440025,139.891617 86.532150,119.728798 86.372574,99.567924 
	C86.345390,96.133575 87.413673,94.224304 90.392372,92.478081 
	C106.766808,82.878784 123.000153,73.038918 139.293320,63.300686 
	C140.666000,62.480251 142.122665,61.800335 144.200378,60.708160 
	C144.200378,69.592110 144.200317,77.711563 144.200378,85.831009 
	C144.200485,98.994728 144.061859,112.160896 144.293655,125.320541 
	C144.355331,128.821350 143.192596,130.667587 140.188934,132.293015 
	C134.238098,135.513275 128.526337,139.175339 122.074738,143.038635 
	C142.573792,160.196396 162.566284,176.930161 182.873840,193.927628 
	C223.272934,152.595383 271.964783,130.194870 329.946838,130.193024 
	C387.778107,130.191162 436.369598,152.414825 477.048126,193.924850 
	C497.041443,177.141754 517.014526,160.375656 537.676270,143.031433 
	C531.050415,139.042526 524.806030,135.415176 518.732178,131.521835 
	C517.426514,130.684906 515.899719,128.893539 515.888733,127.530426 
	C515.711792,105.549431 515.763672,83.566589 515.763672,60.928776 
	C517.374634,61.675240 518.550415,62.098045 519.603699,62.726295 
	C536.476074,72.790749 553.366821,82.825851 570.135925,93.059967 
	C571.661011,93.990730 573.319397,96.229355 573.335266,97.875877 
	C573.544189,119.535568 573.471313,141.198013 573.447144,162.859741 
	C573.446655,163.321869 573.185730,163.783722 573.049927,164.233490 
	C572.665649,164.269012 572.307251,164.420227 572.089111,164.305267 
	C563.530396,159.794556 563.569153,159.836105 556.016846,166.111053 
	C537.055176,181.865692 518.054443,197.573364 499.077332,213.309555 
	C497.820801,214.351471 496.631561,215.474548 495.173157,216.771408 
	C519.931335,252.880844 531.190063,292.778320 530.460327,336.592651 
	C529.470459,363.223755 524.477173,388.581055 512.921387,412.300995 
	C508.192535,422.007782 502.631409,431.319061 497.213623,440.674042 
	C495.655182,443.365051 495.822693,444.868530 498.262543,446.891663 
	C519.403076,464.421539 540.464966,482.046906 561.458252,499.752869 
	C563.572632,501.536194 565.057190,501.248291 567.119019,499.939209 
	C572.736084,496.372955 578.534546,493.089691 584.109741,489.461578 
	C586.558167,487.868225 588.425659,487.985443 590.877136,489.509979 
	C607.109253,499.604431 623.449890,509.524078 639.717468,519.561829 
	C644.215942,522.337524 644.081665,522.306824 639.543335,525.028748 
	C635.487366,527.461365 631.622925,530.213379 627.338440,532.971436 
	C614.492371,540.513794 602.014465,547.965820 589.421997,555.218811 
	C588.129578,555.963196 585.736145,556.219421 584.554626,555.519226 
	C566.649719,544.908813 548.860474,534.103088 531.056274,523.323059 
	C530.683533,523.097351 530.454285,522.634583 529.935364,522.017700 
	C532.271240,520.541016 534.476807,519.146729 537.269714,517.381104 
	C516.954590,500.294922 496.897095,483.425385 476.707458,466.444733 
	C436.100464,507.947540 387.364441,530.238831 329.376892,530.191772 
	C271.577240,530.144836 222.985245,507.904694 182.243134,466.468414 
	C162.215714,483.372620 142.188156,500.276917 121.956909,517.353149 
	C124.606636,519.117249 126.777817,520.562683 129.508560,522.380676 
	C122.941589,526.362610 116.872643,530.058472 110.788132,533.728455 
	C99.523811,540.522888 88.135147,547.121399 77.045883,554.190002 
	C73.375984,556.529236 70.809532,556.255676 67.240799,554.089294 
	C56.255402,547.420715 45.010757,541.179260 33.513786,534.678467 
M335.062897,202.333588 
	C332.973755,202.182892 330.651489,201.370926 328.840485,202.009277 
	C324.002014,203.714767 319.167328,205.662186 314.711914,208.185669 
	C285.579254,224.685837 256.682526,241.607941 227.395935,257.827423 
	C219.227661,262.351166 215.564651,268.144440 215.607681,277.281525 
	C215.775604,312.943024 215.891724,348.607849 215.529129,384.266357 
	C215.453369,391.717041 217.803757,396.535065 224.130737,400.163055 
	C256.918152,418.963867 289.587860,437.970093 322.385223,456.753448 
	C327.863647,459.891022 333.581909,459.146515 339.041718,456.007263 
	C350.013123,449.699066 361.074402,443.546173 372.014557,437.184662 
	C394.031952,424.381836 415.988373,411.474213 437.981354,398.629303 
	C442.420990,396.036316 444.319794,392.335114 444.306122,387.102386 
	C444.207428,349.273010 444.265930,311.443146 444.314423,273.613525 
	C444.321960,267.741211 441.854675,263.424530 436.776581,260.520294 
	C403.087555,241.252975 369.404755,221.974716 335.062897,202.333588 
z"/>
<path fill="#F7F7F7" opacity="1.000000" stroke="none" 
	d="
M34.900654,544.757690 
	C34.335686,544.201660 34.078117,543.561035 33.820541,542.920410 
	C34.365799,542.827942 34.911057,542.735474 35.456310,542.643005 
	C35.373558,543.319702 35.290806,543.996399 34.900654,544.757690 
z"/>
<path fill="#F7F7F7" opacity="1.000000" stroke="none" 
	d="
M12.926722,553.864929 
	C11.994139,553.793091 11.079831,553.338806 10.013905,552.606812 
	C11.804069,550.270081 12.707868,550.985352 12.926722,553.864929 
z"/>
<path fill="#F6F6F6" opacity="1.000000" stroke="none" 
	d="
M335.391418,202.516800 
	C369.404755,221.974716 403.087555,241.252975 436.776581,260.520294 
	C441.854675,263.424530 444.321960,267.741211 444.314423,273.613525 
	C444.265930,311.443146 444.207428,349.273010 444.306122,387.102386 
	C444.319794,392.335114 442.420990,396.036316 437.981354,398.629303 
	C415.988373,411.474213 394.031952,424.381836 372.014557,437.184662 
	C361.074402,443.546173 350.013123,449.699066 339.041718,456.007263 
	C333.581909,459.146515 327.863647,459.891022 322.385223,456.753448 
	C289.587860,437.970093 256.918152,418.963867 224.130737,400.163055 
	C217.803757,396.535065 215.453369,391.717041 215.529129,384.266357 
	C215.891724,348.607849 215.775604,312.943024 215.607681,277.281525 
	C215.564651,268.144440 219.227661,262.351166 227.395935,257.827423 
	C256.682526,241.607941 285.579254,224.685837 314.711914,208.185669 
	C319.167328,205.662186 324.002014,203.714767 328.840485,202.009277 
	C330.651489,201.370926 332.973755,202.182892 335.391418,202.516800 
M274.648529,396.876617 
	C288.146393,404.572601 301.644287,412.268585 315.586792,420.218109 
	C315.743164,418.559174 315.857880,417.908691 315.858124,417.258148 
	C315.866943,392.098419 315.782471,366.938110 315.966980,341.779724 
	C315.990784,338.532593 314.294525,337.472443 312.075836,336.207886 
	C290.816223,324.090485 269.577393,311.936554 248.323273,299.809418 
	C247.092850,299.107361 245.781601,298.546906 244.338745,297.837311 
	C244.111664,298.807892 243.909134,299.270416 243.908676,299.733124 
	C243.883835,325.225891 243.815521,350.719147 244.006348,376.210419 
	C244.018661,377.854614 245.670883,380.100555 247.192505,381.018219 
	C256.032166,386.349182 265.061218,391.366150 274.648529,396.876617 
M366.850861,325.344238 
	C360.494354,328.983307 354.198975,332.735931 347.751648,336.206329 
	C345.126709,337.619232 343.964935,339.197205 343.983887,342.361176 
	C344.130707,366.853424 344.058746,391.346985 344.080017,415.840118 
	C344.081085,417.059143 344.318298,418.277954 344.474701,419.775635 
	C345.547211,419.363892 346.189087,419.207794 346.740234,418.892853 
	C368.864746,406.251587 390.949768,393.540588 413.138275,381.012787 
	C415.881989,379.463654 416.088867,377.468781 416.083771,374.858246 
	C416.036591,350.698425 416.061127,326.538513 416.042633,302.378601 
	C416.041565,300.984680 415.848114,299.590881 415.688843,297.454681 
	C399.203918,306.878174 383.351959,315.939850 366.850861,325.344238 
M367.163635,292.683289 
	C378.436554,286.198486 389.709473,279.713715 401.533325,272.912018 
	C381.192474,261.264618 361.475250,250.760727 342.644958,238.854111 
	C333.480011,233.059021 326.723083,232.862793 317.460449,238.740875 
	C298.546997,250.743378 278.705872,261.284027 258.877228,272.638519 
	C259.926331,273.511261 260.583740,274.240875 261.393341,274.705017 
	C283.350128,287.293274 305.293762,299.905548 327.358429,312.302246 
	C328.798218,313.111176 331.542206,312.877563 333.077393,312.033569 
	C344.311127,305.857697 355.390930,299.401855 367.163635,292.683289 
z"/>
<path fill="#030303" opacity="1.000000" stroke="none" 
	d="
M274.337372,396.682953 
	C265.061218,391.366150 256.032166,386.349182 247.192505,381.018219 
	C245.670883,380.100555 244.018661,377.854614 244.006348,376.210419 
	C243.815521,350.719147 243.883835,325.225891 243.908676,299.733124 
	C243.909134,299.270416 244.111664,298.807892 244.338745,297.837311 
	C245.781601,298.546906 247.092850,299.107361 248.323273,299.809418 
	C269.577393,311.936554 290.816223,324.090485 312.075836,336.207886 
	C314.294525,337.472443 315.990784,338.532593 315.966980,341.779724 
	C315.782471,366.938110 315.866943,392.098419 315.858124,417.258148 
	C315.857880,417.908691 315.743164,418.559174 315.586792,420.218109 
	C301.644287,412.268585 288.146393,404.572601 274.337372,396.682953 
z"/>
<path fill="#030303" opacity="1.000000" stroke="none" 
	d="
M367.175415,325.172882 
	C383.351959,315.939850 399.203918,306.878174 415.688843,297.454681 
	C415.848114,299.590881 416.041565,300.984680 416.042633,302.378601 
	C416.061127,326.538513 416.036591,350.698425 416.083771,374.858246 
	C416.088867,377.468781 415.881989,379.463654 413.138275,381.012787 
	C390.949768,393.540588 368.864746,406.251587 346.740234,418.892853 
	C346.189087,419.207794 345.547211,419.363892 344.474701,419.775635 
	C344.318298,418.277954 344.081085,417.059143 344.080017,415.840118 
	C344.058746,391.346985 344.130707,366.853424 343.983887,342.361176 
	C343.964935,339.197205 345.126709,337.619232 347.751648,336.206329 
	C354.198975,332.735931 360.494354,328.983307 367.175415,325.172882 
z"/>
<path fill="#030303" opacity="1.000000" stroke="none" 
	d="
M366.841492,292.858826 
	C355.390930,299.401855 344.311127,305.857697 333.077393,312.033569 
	C331.542206,312.877563 328.798218,313.111176 327.358429,312.302246 
	C305.293762,299.905548 283.350128,287.293274 261.393341,274.705017 
	C260.583740,274.240875 259.926331,273.511261 258.877228,272.638519 
	C278.705872,261.284027 298.546997,250.743378 317.460449,238.740875 
	C326.723083,232.862793 333.480011,233.059021 342.644958,238.854111 
	C361.475250,250.760727 381.192474,261.264618 401.533325,272.912018 
	C389.709473,279.713715 378.436554,286.198486 366.841492,292.858826 
z"/>
</svg>